<svg width="56" height="56" viewBox="0 0 56 56" fill="none" xmlns="http://www.w3.org/2000/svg"><g class="jsx-921695137 h1"><path fill-rule="evenodd" clip-rule="evenodd" d="M12.003 28.3329C13.9817 32.4943 17.5987 36.2115 20.9165 39.25C23.9173 41.9981 26.3331 43.8333 27.9998 43.8333C29.6665 43.8333 32.0157 42.012 35.0831 39.25C40.0517 34.7761 45.4998 28.8333 45.4998 22.1666C45.4998 22.021 45.4972 21.8761 45.4921 21.7321C42.2785 30.7698 30.7978 38.8333 27.5833 38.8333C25.1878 38.8333 17.3515 34.3552 12.003 28.3329Z" fill="black" fill-opacity="0.03" ></path><g filter="url(#filter0_d)" ><path fill-rule="evenodd" clip-rule="evenodd" d="M20.5 11.75C25.5 11.75 28 15.0833 28 15.0833C28 15.0833 30.5 11.75 35.5 11.75C41.3333 11.75 45.5 16.3333 45.5 22.1667C45.5 28.8333 40.0518 34.7762 35.0833 39.25C32.0159 42.012 29.6667 43.8333 28 43.8333C26.3333 43.8333 23.9175 41.9982 20.9167 39.25C16.0325 34.7771 10.5 28.8333 10.5 22.1667C10.5 16.3333 14.6667 11.75 20.5 11.75Z" fill="white" fill-opacity="0.9" ></path></g></g><g ><path d="M30 0H26L28 28L30 0Z" fill="#EA4C4C" ></path></g><g ><path d="M30 0H26L28 28L30 0Z" fill="#EA4C4C" ></path></g><g ><path d="M30 0H26L28 28L30 0Z" fill="#EA4C4C" ></path></g><g ><path d="M30 0H26L28 28L30 0Z" fill="#EA4C4C" ></path></g><g ><path d="M30 0H26L28 28L30 0Z" fill="#EA4C4C" ></path></g><g class="jsx-921695137 g6"><path d="M30 0H26L28 28L30 0Z" fill="#EA4C4C" ></path></g><circle cx="28" cy="28" r="21.5" stroke="#EA4C4C" class="jsx-921695137 v7"></circle><g class="jsx-921695137 h2"><g filter="url(#filter1_d)" ><path fill-rule="evenodd" clip-rule="evenodd" d="M20.5 11.75C25.5 11.75 28 15.0833 28 15.0833C28 15.0833 30.5 11.75 35.5 11.75C41.3333 11.75 45.5 16.3333 45.5 22.1667C45.5 28.8333 40.0518 34.7762 35.0833 39.25C32.0159 42.012 29.6667 43.8333 28 43.8333C26.3333 43.8333 23.9175 41.9982 20.9167 39.25C16.0325 34.7771 10.5 28.8333 10.5 22.1667C10.5 16.3333 14.6667 11.75 20.5 11.75Z" fill="#FE2C55" ></path></g><path fill-rule="evenodd" clip-rule="evenodd" d="M12.003 28.3329C13.9817 32.4943 17.5987 36.2114 20.9165 39.2499C23.9173 41.9981 26.3332 43.8332 27.9998 43.8332C29.6665 43.8332 32.0157 42.0119 35.0832 39.2499C40.0517 34.7761 45.4998 28.8332 45.4998 22.1666C45.4998 22.0209 45.4972 21.8761 45.4921 21.7321C42.2785 30.7698 30.7978 38.8333 27.5834 38.8333C25.1879 38.8333 17.3515 34.3551 12.003 28.3329Z" fill="black" fill-opacity="0.12" ></path></g><defs ><filter id="filter0_d" x="8.1" y="10.55" width="39.8" height="36.8833" filterUnits="userSpaceOnUse" color-interpolation-filters="sRGB"><feFlood flood-opacity="0" result="BackgroundImageFix" ></feFlood><feColorMatrix in="SourceAlpha" type="matrix" values="0 0 0 0 0 0 0 0 0 0 0 0 0 0 0 0 0 0 127 0" ></feColorMatrix><feOffset dy="1.2" ></feOffset><feGaussianBlur stdDeviation="1.2" ></feGaussianBlur><feColorMatrix type="matrix" values="0 0 0 0 0 0 0 0 0 0 0 0 0 0 0 0 0 0 0.15 0" ></feColorMatrix><feBlend mode="normal" in2="BackgroundImageFix" result="effect1_dropShadow" ></feBlend><feBlend mode="normal" in="SourceGraphic" in2="effect1_dropShadow" result="shape" ></feBlend></filter><filter id="filter1_d" x="8.5" y="10.75" width="39" height="36.0833" filterUnits="userSpaceOnUse" color-interpolation-filters="sRGB" ><feFlood flood-opacity="0" result="BackgroundImageFix" ></feFlood><feColorMatrix in="SourceAlpha" type="matrix" values="0 0 0 0 0 0 0 0 0 0 0 0 0 0 0 0 0 0 127 0" ></feColorMatrix><feOffset dy="1" ></feOffset><feGaussianBlur stdDeviation="1" ></feGaussianBlur><feColorMatrix type="matrix" values="0 0 0 0 0 0 0 0 0 0 0 0 0 0 0 0 0 0 0.15 0" ></feColorMatrix><feBlend mode="normal" in2="BackgroundImageFix" result="effect1_dropShadow" ></feBlend><feBlend mode="normal" in="SourceGraphic" in2="effect1_dropShadow" result="shape" ></feBlend></filter></defs></svg>
